<svg width="400" height="400" viewBox="0 0 400 400" fill="none" xmlns="http://www.w3.org/2000/svg">
  <rect width="400" height="400" fill="#f3f4f6"/>
  <path d="M200 120C166.863 120 140 146.863 140 180C140 213.137 166.863 240 200 240C233.137 240 260 213.137 260 180C260 146.863 233.137 120 200 120ZM200 220C177.909 220 160 202.091 160 180C160 157.909 177.909 140 200 140C222.091 140 240 157.909 240 180C240 202.091 222.091 220 200 220Z" fill="#9ca3af"/>
  <path d="M280 280H120V260C120 240.67 135.67 225 155 225H245C264.33 225 280 240.67 280 260V280ZM260 260C260 251.716 253.284 245 245 245H155C146.716 245 140 251.716 140 260V260H260Z" fill="#9ca3af"/>
  <text x="200" y="320" text-anchor="middle" font-family="Arial, sans-serif" font-size="16" fill="#6b7280">Image Unavailable</text>
</svg>